<svg width="16" height="16" viewBox="0 0 16 16" fill="none" xmlns="http://www.w3.org/2000/svg">
<path d="M11.6003 4.4C11.2343 4.4 10.8983 4.19 10.7303 3.866L10.2983 2.996C10.0223 2.45 9.3023 2 8.6903 2H7.3163C6.6983 2 5.9783 2.45 5.7023 2.996L5.2703 3.866C5.1023 4.19 4.7663 4.4 4.4003 4.4C3.0983 4.4 2.0663 5.498 2.1503 6.794L2.4623 11.75C2.5343 12.986 3.2003 14 4.8563 14H11.1443C12.8003 14 13.4603 12.986 13.5383 11.75L13.8503 6.794C13.9343 5.498 12.9023 4.4 11.6003 4.4ZM7.1003 5.15H8.9003C9.1463 5.15 9.3503 5.354 9.3503 5.6C9.3503 5.846 9.1463 6.05 8.9003 6.05H7.1003C6.8543 6.05 6.6503 5.846 6.6503 5.6C6.6503 5.354 6.8543 5.15 7.1003 5.15ZM8.0003 11.672C6.8843 11.672 5.9723 10.766 5.9723 9.644C5.9723 8.522 6.8783 7.616 8.0003 7.616C9.1223 7.616 10.0283 8.522 10.0283 9.644C10.0283 10.766 9.1163 11.672 8.0003 11.672Z" fill="#FDFDFD"/>
</svg>
